{
  "accessors": [
    {
      "bufferView": 2,
      "componentType": 5126,
      "count": 5671,
      "max": [
        1.041012167930603,
        1.041012167930603,
        1.041012167930603
      ],
      "min": [
        -1.041012167930603,
        -1.041012167930603,
        -1.041012167930603
      ],
      "type": "VEC3"
    },
    {
      "bufferView": 2,
      "byteOffset": 68052,
      "componentType": 5126,
      "count": 5671,
      "max": [
        1.0,
        1.0,
        1.0
      ],
      "min": [
        -1.0,
        -1.0,
        -1.0
      ],
      "type": "VEC3"
    },
    {
      "bufferView": 1,
      "componentType": 5126,
      "count": 5671,
      "max": [
        0.8750000596046448,
        1.0
      ],
      "min": [
        0.125,
        0.0
      ],
      "type": "VEC2"
    },
    {
      "bufferView": 0,
      "componentType": 5125,
      "count": 10032,
      "type": "SCALAR"
    },
    {
      "bufferView": 2,
      "byteOffset": 136104,
      "componentType": 5126,
      "count": 64,
      "max": [
        1.041012167930603,
        1.041012167930603,
        0.9734213352203369
      ],
      "min": [
        -1.041012167930603,
        -1.041012167930603,
        -0.9734213352203369
      ],
      "type": "VEC3"
    },
    {
      "bufferView": 2,
      "byteOffset": 136872,
      "componentType": 5126,
      "count": 64,
      "max": [
        1.0,
        1.0,
        8.835174014620861e-08
      ],
      "min": [
        -1.0,
        -1.0,
        -0.7992361187934875
      ],
      "type": "VEC3"
    },
    {
      "bufferView": 1,
      "byteOffset": 45368,
      "componentType": 5126,
      "count": 64,
      "max": [
        0.6168841123580933,
        0.9944471120834351
      ],
      "min": [
        0.3831160068511963,
        0.008115997537970543
      ],
      "type": "VEC2"
    },
    {
      "bufferView": 0,
      "byteOffset": 40128,
      "componentType": 5125,
      "count": 96,
      "type": "SCALAR"
    },
    {
      "bufferView": 2,
      "byteOffset": 137640,
      "componentType": 5126,
      "count": 140,
      "max": [
        1.041012167930603,
        1.041012167930603,
        1.041012167930603
      ],
      "min": [
        -1.041012167930603,
        -1.041012167930603,
        -1.041012167930603
      ],
      "type": "VEC3"
    },
    {
      "bufferView": 2,
      "byteOffset": 139320,
      "componentType": 5126,
      "count": 140,
      "max": [
        1.0,
        1.0,
        1.0
      ],
      "min": [
        -1.0,
        -1.0,
        -1.0
      ],
      "type": "VEC3"
    },
    {
      "bufferView": 1,
      "byteOffset": 45880,
      "componentType": 5126,
      "count": 140,
      "max": [
        0.7835506796836853,
        0.9944471120834351
      ],
      "min": [
        0.13055302202701569,
        0.008115998469293118
      ],
      "type": "VEC2"
    },
    {
      "bufferView": 0,
      "byteOffset": 40512,
      "componentType": 5125,
      "count": 210,
      "type": "SCALAR"
    },
    {
      "bufferView": 2,
      "byteOffset": 141000,
      "componentType": 5126,
      "count": 136,
      "max": [
        1.041012167930603,
        1.041012167930603,
        1.041012167930603
      ],
      "min": [
        -1.041012167930603,
        -1.041012167930603,
        -1.041012167930603
      ],
      "type": "VEC3"
    },
    {
      "bufferView": 2,
      "byteOffset": 142632,
      "componentType": 5126,
      "count": 136,
      "max": [
        1.0,
        1.0,
        1.0
      ],
      "min": [
        -1.0,
        -1.0,
        -1.0
      ],
      "type": "VEC3"
    },
    {
      "bufferView": 1,
      "byteOffset": 47000,
      "componentType": 5126,
      "count": 136,
      "max": [
        0.8694470524787903,
        0.8252174854278564
      ],
      "min": [
        0.13055302202701569,
        0.08888635039329529
      ],
      "type": "VEC2"
    },
    {
      "bufferView": 0,
      "byteOffset": 41352,
      "componentType": 5125,
      "count": 204,
      "type": "SCALAR"
    },
    {
      "bufferView": 2,
      "byteOffset": 144264,
      "componentType": 5126,
      "count": 152,
      "max": [
        1.041012167930603,
        1.041012167930603,
        1.041012167930603
      ],
      "min": [
        -1.041012167930603,
        -1.041012167930603,
        -1.041012167930603
      ],
      "type": "VEC3"
    },
    {
      "bufferView": 2,
      "byteOffset": 146088,
      "componentType": 5126,
      "count": 152,
      "max": [
        1.0,
        1.0,
        1.0
      ],
      "min": [
        -1.0,
        -1.0,
        -1.0
      ],
      "type": "VEC3"
    },
    {
      "bufferView": 1,
      "byteOffset": 48088,
      "componentType": 5126,
      "count": 152,
      "max": [
        0.8694469928741455,
        0.9085507392883301
      ],
      "min": [
        0.21388636529445648,
        0.008115997537970543
      ],
      "type": "VEC2"
    },
    {
      "bufferView": 0,
      "byteOffset": 42168,
      "componentType": 5125,
      "count": 228,
      "type": "SCALAR"
    },
    {
      "bufferView": 2,
      "byteOffset": 147912,
      "componentType": 5126,
      "count": 108,
      "max": [
        1.041012167930603,
        1.041012167930603,
        1.041012167930603
      ],
      "min": [
        -1.041012167930603,
        -1.041012167930603,
        -1.041012167930603
      ],
      "type": "VEC3"
    },
    {
      "bufferView": 2,
      "byteOffset": 149208,
      "componentType": 5126,
      "count": 108,
      "max": [
        1.0,
        1.0,
        1.0
      ],
      "min": [
        -1.0,
        -1.0,
        -1.0
      ],
      "type": "VEC3"
    },
    {
      "bufferView": 1,
      "byteOffset": 49304,
      "componentType": 5126,
      "count": 108,
      "max": [
        0.8694469928741455,
        0.9085506796836853
      ],
      "min": [
        0.21388638019561768,
        0.17221969366073608
      ],
      "type": "VEC2"
    },
    {
      "bufferView": 0,
      "byteOffset": 43080,
      "componentType": 5125,
      "count": 162,
      "type": "SCALAR"
    },
    {
      "bufferView": 2,
      "byteOffset": 150504,
      "componentType": 5126,
      "count": 48,
      "max": [
        1.041012167930603,
        1.041012167930603,
        0.9734213352203369
      ],
      "min": [
        -1.041012167930603,
        -1.041012167930603,
        -0.9734213352203369
      ],
      "type": "VEC3"
    },
    {
      "bufferView": 2,
      "byteOffset": 151080,
      "componentType": 5126,
      "count": 48,
      "max": [
        1.0,
        1.0,
        1.0058466415330258e-07
      ],
      "min": [
        -1.0,
        -1.0,
        -0.7992361187934875
      ],
      "type": "VEC3"
    },
    {
      "bufferView": 1,
      "byteOffset": 50168,
      "componentType": 5126,
      "count": 48,
      "max": [
        0.6168840527534485,
        0.9944470524787903
      ],
      "min": [
        0.3831160068511963,
        0.17221970856189728
      ],
      "type": "VEC2"
    },
    {
      "bufferView": 0,
      "byteOffset": 43728,
      "componentType": 5125,
      "count": 72,
      "type": "SCALAR"
    }
  ],
  "asset": {
    "extras": {
      "author": "Avi Aninda (https://sketchfab.com/avianinda)",
      "license": "CC-BY-4.0 (http://creativecommons.org/licenses/by/4.0/)",
      "source": "https://sketchfab.com/3d-models/rubiks-cube-692466217f764fbe9d5c969a30614f68",
      "title": "Rubik's Cube"
    },
    "generator": "Sketchfab-12.63.0",
    "version": "2.0"
  },
  "bufferViews": [
    {
      "buffer": 0,
      "byteLength": 44016,
      "name": "floatBufferViews",
      "target": 34963
    },
    {
      "buffer": 0,
      "byteLength": 50552,
      "byteOffset": 44016,
      "byteStride": 8,
      "name": "floatBufferViews",
      "target": 34962
    },
    {
      "buffer": 0,
      "byteLength": 151656,
      "byteOffset": 94568,
      "byteStride": 12,
      "name": "floatBufferViews",
      "target": 34962
    }
  ],
  "buffers": [
    {
      "byteLength": 246224,
      "uri": "scene.bin"
    }
  ],
  "materials": [
    {
      "doubleSided": true,
      "name": "Material.002",
      "pbrMetallicRoughness": {
        "baseColorFactor": [
          0.0637206,
          0.0165314,
          0.0241432,
          1.0
        ],
        "metallicFactor": 0.0,
        "roughnessFactor": 0.6
      }
    },
    {
      "doubleSided": true,
      "name": "Material.007",
      "pbrMetallicRoughness": {
        "metallicFactor": 0.0,
        "roughnessFactor": 0.6
      }
    },
    {
      "doubleSided": true,
      "name": "Material.006",
      "pbrMetallicRoughness": {
        "baseColorFactor": [
          0.783538,
          0.0512695,
          0.0953075,
          1.0
        ],
        "metallicFactor": 0.0,
        "roughnessFactor": 0.6
      }
    },
    {
      "doubleSided": true,
      "name": "Material.001",
      "pbrMetallicRoughness": {
        "baseColorFactor": [
          0.0423114,
          0.533276,
          0.637597,
          1.0
        ],
        "metallicFactor": 0.0,
        "roughnessFactor": 0.6
      }
    },
    {
      "doubleSided": true,
      "name": "Material.003",
      "pbrMetallicRoughness": {
        "baseColorFactor": [
          0.283149,
          0.564712,
          0.130137,
          1.0
        ],
        "metallicFactor": 0.0,
        "roughnessFactor": 0.6
      }
    },
    {
      "doubleSided": true,
      "name": "Material.004",
      "pbrMetallicRoughness": {
        "baseColorFactor": [
          0.991102,
          0.520996,
          0.0423114,
          1.0
        ],
        "metallicFactor": 0.0,
        "roughnessFactor": 0.6
      }
    },
    {
      "doubleSided": true,
      "name": "Material.005",
      "pbrMetallicRoughness": {
        "baseColorFactor": [
          0.930111,
          0.296138,
          0.0648033,
          1.0
        ],
        "metallicFactor": 0.0,
        "roughnessFactor": 0.6
      }
    }
  ],
  "meshes": [
    {
      "name": "Cube_Material.002_0",
      "primitives": [
        {
          "attributes": {
            "NORMAL": 1,
            "POSITION": 0,
            "TEXCOORD_0": 2
          },
          "indices": 3,
          "material": 0,
          "mode": 4
        }
      ]
    },
    {
      "name": "Cube_Material.007_0",
      "primitives": [
        {
          "attributes": {
            "NORMAL": 5,
            "POSITION": 4,
            "TEXCOORD_0": 6
          },
          "indices": 7,
          "material": 1,
          "mode": 4
        }
      ]
    },
    {
      "name": "Cube_Material.006_0",
      "primitives": [
        {
          "attributes": {
            "NORMAL": 9,
            "POSITION": 8,
            "TEXCOORD_0": 10
          },
          "indices": 11,
          "material": 2,
          "mode": 4
        }
      ]
    },
    {
      "name": "Cube_Material.001_0",
      "primitives": [
        {
          "attributes": {
            "NORMAL": 13,
            "POSITION": 12,
            "TEXCOORD_0": 14
          },
          "indices": 15,
          "material": 3,
          "mode": 4
        }
      ]
    },
    {
      "name": "Cube_Material.003_0",
      "primitives": [
        {
          "attributes": {
            "NORMAL": 17,
            "POSITION": 16,
            "TEXCOORD_0": 18
          },
          "indices": 19,
          "material": 4,
          "mode": 4
        }
      ]
    },
    {
      "name": "Cube_Material.004_0",
      "primitives": [
        {
          "attributes": {
            "NORMAL": 21,
            "POSITION": 20,
            "TEXCOORD_0": 22
          },
          "indices": 23,
          "material": 5,
          "mode": 4
        }
      ]
    },
    {
      "name": "Cube_Material.005_0",
      "primitives": [
        {
          "attributes": {
            "NORMAL": 25,
            "POSITION": 24,
            "TEXCOORD_0": 26
          },
          "indices": 27,
          "material": 6,
          "mode": 4
        }
      ]
    }
  ],
  "nodes": [
    {
      "children": [
        1
      ],
      "matrix": [
        1.0,
        0.0,
        0.0,
        0.0,
        0.0,
        2.220446049250313e-16,
        -1.0,
        0.0,
        0.0,
        1.0,
        2.220446049250313e-16,
        0.0,
        0.0,
        0.0,
        0.0,
        1.0
      ],
      "name": "Sketchfab_model"
    },
    {
      "children": [
        2
      ],
      "matrix": [
        1.0,
        0.0,
        0.0,
        0.0,
        0.0,
        0.0,
        1.0,
        0.0,
        0.0,
        -1.0,
        0.0,
        0.0,
        0.0,
        0.0,
        0.0,
        1.0
      ],
      "name": "836051a3b1934b6d8795e9b72553b00b.fbx"
    },
    {
      "children": [
        3
      ],
      "name": "RootNode"
    },
    {
      "children": [
        4,
        5,
        6,
        7,
        8,
        9,
        10
      ],
      "matrix": [
        100.0,
        0.0,
        0.0,
        0.0,
        0.0,
        -1.629206793918314e-05,
        -99.99999999999868,
        0.0,
        0.0,
        99.99999999999868,
        -1.629206793918314e-05,
        0.0,
        0.0,
        0.0,
        0.0,
        1.0
      ],
      "name": "Cube"
    },
    {
      "mesh": 0,
      "name": "Cube_Material.002_0"
    },
    {
      "mesh": 1,
      "name": "Cube_Material.007_0"
    },
    {
      "mesh": 2,
      "name": "Cube_Material.006_0"
    },
    {
      "mesh": 3,
      "name": "Cube_Material.001_0"
    },
    {
      "mesh": 4,
      "name": "Cube_Material.003_0"
    },
    {
      "mesh": 5,
      "name": "Cube_Material.004_0"
    },
    {
      "mesh": 6,
      "name": "Cube_Material.005_0"
    }
  ],
  "scene": 0,
  "scenes": [
    {
      "name": "Sketchfab_Scene",
      "nodes": [
        0
      ]
    }
  ]
}
