<svg width="79" height="23" viewBox="0 0 79 23" fill="none" xmlns="http://www.w3.org/2000/svg">
<g filter="url(#filter0_d_156_157)">
<path d="M4.41309 7.99609H5.18066C5.35059 7.99609 5.52637 8.00684 5.70801 8.02832C5.88965 8.0498 6.05859 8.09766 6.21484 8.17188C6.37109 8.24414 6.49707 8.35645 6.59277 8.50879C6.69043 8.66113 6.73926 8.86816 6.73926 9.12988V9.37305C6.73926 9.63867 6.67578 9.85547 6.54883 10.0234C6.42383 10.1895 6.28418 10.3008 6.12988 10.3574V10.3809C6.35645 10.4707 6.52832 10.5996 6.64551 10.7676C6.7627 10.9355 6.82129 11.168 6.82129 11.4648V11.7197C6.82129 11.9912 6.77734 12.2119 6.68945 12.3818C6.60352 12.5498 6.48535 12.6787 6.33496 12.7686C6.18457 12.8584 6.0127 12.9199 5.81934 12.9531C5.62598 12.9844 5.42285 13 5.20996 13H4.41309V7.99609ZM5.30371 10.1377C5.50684 10.1377 5.66895 10.0879 5.79004 9.98828C5.91113 9.88672 5.97168 9.71875 5.97168 9.48438V9.2793C5.97168 9.04688 5.92285 8.86719 5.8252 8.74023C5.72754 8.61328 5.55371 8.5498 5.30371 8.5498H5.17188V10.1377H5.30371ZM5.37402 12.4463C5.57715 12.4463 5.73828 12.3965 5.85742 12.2969C5.97852 12.1953 6.03906 12.0273 6.03906 11.793V11.4033C6.03906 11.1689 5.99023 10.9893 5.89258 10.8643C5.79688 10.7373 5.62402 10.6738 5.37402 10.6738H5.17188V12.4463H5.37402ZM7.27832 13.7764C7.50293 13.8076 7.68652 13.7607 7.8291 13.6357C7.97168 13.5127 8.04883 13.3086 8.06055 13.0234L7.10547 8.96582H7.84375L8.26855 11.1982L8.3916 11.9688H8.41504L8.5 11.1982L8.84277 8.96582H9.55762L8.72852 13.1494C8.65234 13.5361 8.53516 13.8252 8.37695 14.0166C8.21875 14.208 7.98242 14.3037 7.66797 14.3037C7.54102 14.3037 7.41113 14.2793 7.27832 14.2305V13.7764ZM15.8083 6.94C16.5083 6.84 17.1533 6.79 17.7433 6.79L17.5933 3.295C17.3533 3.725 17.0133 4.415 16.5733 5.365C16.1933 6.175 15.9383 6.7 15.8083 6.94ZM20.2933 12.31C20.3333 12.46 20.2933 12.605 20.1733 12.745C20.0533 12.875 19.8883 12.98 19.6783 13.06C19.4783 13.15 19.2883 13.195 19.1083 13.195C18.8183 13.195 18.6533 13.105 18.6133 12.925C18.2533 11.495 17.9883 9.795 17.8183 7.825C16.9183 7.815 16.0233 7.9 15.1333 8.08C14.1933 9.65 13.3183 11.095 12.5083 12.415C12.4283 12.555 12.2633 12.675 12.0133 12.775C11.7533 12.865 11.5133 12.91 11.2933 12.91C11.0133 12.91 10.8733 12.835 10.8733 12.685C10.8733 12.625 10.8933 12.56 10.9333 12.49C11.7333 11.09 12.4733 9.81 13.1533 8.65L12.8983 8.74C12.7383 8.8 12.5933 8.83 12.4633 8.83C12.3333 8.83 12.2333 8.8 12.1633 8.74C12.0833 8.68 12.0433 8.605 12.0433 8.515C12.0433 8.415 12.0933 8.315 12.1933 8.215C12.2833 8.105 12.4183 8.01 12.5983 7.93C13.0683 7.72 13.4883 7.555 13.8583 7.435C14.3983 6.505 14.9733 5.45 15.5833 4.27C16.2833 2.92 16.8733 1.865 17.3533 1.105C17.3833 1.065 17.4233 1.025 17.4733 0.984999L17.4583 0.909999C17.4583 0.729999 17.5833 0.569999 17.8333 0.429999C18.0933 0.279999 18.3533 0.204999 18.6133 0.204999C18.9333 0.204999 19.0983 0.324999 19.1083 0.564999L19.1533 1.57C19.2433 3.98 19.3583 6.01 19.4983 7.66C19.6483 9.3 19.9133 10.85 20.2933 12.31ZM27.1108 3.295C27.5108 3.515 27.7108 3.98 27.7108 4.69C27.7108 4.95 27.6858 5.24 27.6358 5.56C27.5858 5.87 27.5308 6.165 27.4708 6.445L27.3658 7.045L26.7358 11.71C26.9358 11.76 27.0208 11.885 26.9908 12.085C26.8808 12.635 26.4908 12.985 25.8208 13.135L25.6708 13.15C25.5008 13.15 25.3508 13.115 25.2208 13.045C25.0908 12.975 25.0358 12.865 25.0558 12.715C25.4758 9.675 25.7858 7.395 25.9858 5.875C25.9958 5.835 26.0158 5.72 26.0458 5.53C26.0858 5.34 26.1058 5.16 26.1058 4.99C26.1058 4.67 26.0208 4.505 25.8508 4.495C25.7208 4.475 25.5058 4.655 25.2058 5.035C24.9158 5.405 24.7558 5.61 24.7258 5.65C24.1258 6.33 23.5658 7.09 23.0458 7.93C22.8058 9.39 22.6158 10.57 22.4758 11.47L22.4008 11.95C22.3708 12.14 22.2308 12.305 21.9808 12.445C21.7308 12.585 21.4858 12.655 21.2458 12.655C21.0958 12.655 20.9758 12.625 20.8858 12.565C20.8058 12.495 20.7758 12.395 20.7958 12.265C21.0558 10.735 21.2608 9.485 21.4108 8.515C21.3508 8.455 21.3208 8.385 21.3208 8.305C21.3208 8.255 21.3358 8.2 21.3658 8.14C21.3958 8.09 21.4208 8.045 21.4408 8.005C21.4708 7.965 21.4958 7.93 21.5158 7.9L22.1158 4.27C22.1458 4.09 22.2808 3.935 22.5208 3.805C22.7608 3.675 23.0008 3.61 23.2408 3.61C23.3908 3.61 23.5058 3.64 23.5858 3.7C23.6658 3.76 23.6958 3.85 23.6758 3.97C23.6258 4.3 23.5558 4.725 23.4658 5.245L24.0958 4.57C24.5158 4.15 24.9158 3.805 25.2958 3.535C25.6758 3.265 26.0608 3.13 26.4508 3.13C26.7008 3.13 26.9208 3.185 27.1108 3.295ZM29.9106 11.155C30.1006 11.305 30.3456 11.38 30.6456 11.38C30.9956 11.38 31.4406 11.265 31.9806 11.035C32.3006 9.185 32.5506 7.365 32.7306 5.575H32.7006C32.1606 5.575 31.6656 5.76 31.2156 6.13C30.7656 6.5 30.3906 6.96 30.0906 7.51C29.8006 8.06 29.6006 8.605 29.4906 9.145C29.4406 9.395 29.4156 9.64 29.4156 9.88C29.4156 10.47 29.5806 10.895 29.9106 11.155ZM33.0906 0.819999C33.1006 0.639999 33.2256 0.484999 33.4656 0.354999C33.7056 0.214999 33.9506 0.144999 34.2006 0.144999C34.5106 0.144999 34.6606 0.259999 34.6506 0.489999C34.4806 3.79 34.1206 7.195 33.5706 10.705C33.7306 10.785 33.8106 10.89 33.8106 11.02C33.8106 11.17 33.6906 11.315 33.4506 11.455L33.3606 12.01C33.3206 12.2 33.1756 12.365 32.9256 12.505C32.6856 12.635 32.4456 12.7 32.2056 12.7C32.0556 12.7 31.9356 12.67 31.8456 12.61C31.7556 12.54 31.7256 12.44 31.7556 12.31C31.7556 12.26 31.7606 12.225 31.7706 12.205C31.1306 12.405 30.6006 12.505 30.1806 12.505C29.7206 12.505 29.3056 12.405 28.9356 12.205C28.5656 12.015 28.2956 11.74 28.1256 11.38C27.9556 11.02 27.8706 10.615 27.8706 10.165C27.8706 10.005 27.8906 9.785 27.9306 9.505C28.0706 8.695 28.3706 7.915 28.8306 7.165C29.2906 6.415 29.8706 5.8 30.5706 5.32C31.2706 4.84 32.0256 4.585 32.8356 4.555C32.9556 3.185 33.0406 1.94 33.0906 0.819999ZM39.0339 3.1C39.3239 2.98 39.5889 2.92 39.8289 2.92C40.0889 2.92 40.2989 2.99 40.4589 3.13C40.6189 3.26 40.6989 3.475 40.6989 3.775C40.6989 4.065 40.6539 4.38 40.5639 4.72C40.4739 5.06 40.3489 5.46 40.1889 5.92L39.9789 6.55C39.9189 6.74 39.7639 6.9 39.5139 7.03C39.2639 7.16 39.0239 7.225 38.7939 7.225C38.6439 7.225 38.5289 7.195 38.4489 7.135C38.3789 7.065 38.3639 6.965 38.4039 6.835C38.5839 6.275 38.7639 5.655 38.9439 4.975C38.9839 4.665 39.0139 4.46 39.0339 4.36L38.9739 4.42C38.2039 5.08 37.4989 5.91 36.8589 6.91C36.5689 8.5 36.3889 10.095 36.3189 11.695C36.3089 11.885 36.1789 12.055 35.9289 12.205C35.6889 12.345 35.4389 12.415 35.1789 12.415C35.0289 12.415 34.9039 12.38 34.8039 12.31C34.7039 12.24 34.6589 12.135 34.6689 11.995C34.7489 10.555 34.9039 9.155 35.1339 7.795C35.0339 7.725 34.9839 7.645 34.9839 7.555C34.9839 7.495 35.0039 7.43 35.0439 7.36L35.2689 6.985C35.4889 5.835 35.7589 4.68 36.0789 3.52C36.1289 3.34 36.2839 3.185 36.5439 3.055C36.8139 2.915 37.0689 2.845 37.3089 2.845C37.4589 2.845 37.5739 2.875 37.6539 2.935C37.7339 2.995 37.7539 3.085 37.7139 3.205C37.5539 3.765 37.4539 4.135 37.4139 4.315C38.0139 3.715 38.5539 3.31 39.0339 3.1ZM44.3907 4.375C43.8807 4.765 43.4657 5.395 43.1457 6.265C44.1257 5.895 45.0107 5.585 45.8007 5.335C45.4707 4.875 45.1357 4.565 44.7957 4.405C44.7257 4.375 44.6557 4.355 44.5857 4.345C44.5257 4.335 44.4907 4.33 44.4807 4.33C44.4907 4.34 44.4807 4.35 44.4507 4.36C44.4307 4.37 44.4107 4.375 44.3907 4.375ZM44.4507 3.31C44.6107 3.27 44.7807 3.25 44.9607 3.25C45.9207 3.25 46.7907 3.895 47.5707 5.185C47.6007 5.225 47.6157 5.275 47.6157 5.335C47.6157 5.445 47.5457 5.56 47.4057 5.68C47.2957 5.8 47.1557 5.895 46.9857 5.965C45.9857 6.405 44.5957 6.93 42.8157 7.54C42.7157 8.05 42.6657 8.575 42.6657 9.115C42.6657 9.365 42.6707 9.545 42.6807 9.655C42.7007 10.105 42.7907 10.495 42.9507 10.825C43.0007 10.935 43.0707 11.04 43.1607 11.14C43.2607 11.24 43.3357 11.305 43.3857 11.335C43.4157 11.355 43.4657 11.365 43.5357 11.365C43.6057 11.365 43.6857 11.345 43.7757 11.305C43.8757 11.265 43.9857 11.21 44.1057 11.14C44.3957 10.97 44.6657 10.775 44.9157 10.555C45.1657 10.335 45.4657 10.05 45.8157 9.7C45.9557 9.56 46.1907 9.49 46.5207 9.49C46.7007 9.49 46.8507 9.52 46.9707 9.58C47.1007 9.63 47.1657 9.705 47.1657 9.805C47.1657 9.895 47.1157 9.995 47.0157 10.105C46.3957 10.775 45.7607 11.345 45.1107 11.815C44.4607 12.285 43.8107 12.52 43.1607 12.52C42.8507 12.52 42.5607 12.455 42.2907 12.325C41.8407 12.115 41.5157 11.78 41.3157 11.32C41.1157 10.86 41.0157 10.32 41.0157 9.7C41.0157 9.24 41.0757 8.7 41.1957 8.08L41.0757 8.11L40.9557 8.155C40.8057 8.205 40.6857 8.23 40.5957 8.23C40.4557 8.23 40.3457 8.195 40.2657 8.125C40.1857 8.055 40.1457 7.965 40.1457 7.855C40.1457 7.725 40.1957 7.6 40.2957 7.48C40.4057 7.35 40.5657 7.245 40.7757 7.165L41.5107 6.88C41.6007 6.6 41.7357 6.235 41.9157 5.785C42.1957 5.165 42.5457 4.63 42.9657 4.18C43.3857 3.73 43.8807 3.44 44.4507 3.31ZM50.0642 5.35C50.0642 5.73 50.1592 6.065 50.3492 6.355C50.5492 6.645 50.7892 6.89 51.0692 7.09C51.3492 7.29 51.7292 7.525 52.2092 7.795C52.8592 8.165 53.3542 8.5 53.6942 8.8C54.0442 9.1 54.2742 9.475 54.3842 9.925C54.4242 10.125 54.4442 10.27 54.4442 10.36C54.4442 11.06 54.0742 11.565 53.3342 11.875C52.5942 12.175 51.7542 12.325 50.8142 12.325C50.4442 12.325 50.1192 12.3 49.8392 12.25C49.5092 12.19 49.1642 12.075 48.8042 11.905C48.4542 11.725 48.1592 11.51 47.9192 11.26C47.6892 11 47.5742 10.735 47.5742 10.465C47.5742 10.045 47.8992 9.66 48.5492 9.31C48.7292 9.22 48.9042 9.175 49.0742 9.175C49.2342 9.175 49.3642 9.21 49.4642 9.28C49.5742 9.35 49.6292 9.435 49.6292 9.535C49.6292 9.715 49.4842 9.89 49.1942 10.06C49.1342 10.09 49.1042 10.135 49.1042 10.195C49.1042 10.315 49.1992 10.46 49.3892 10.63C49.5792 10.8 49.7292 10.915 49.8392 10.975C50.1392 11.145 50.6192 11.25 51.2792 11.29C51.3592 11.3 51.4992 11.305 51.6992 11.305C52.0592 11.305 52.3492 11.245 52.5692 11.125C52.7892 11.005 52.8842 10.785 52.8542 10.465C52.8142 10.035 52.3792 9.55 51.5492 9.01L50.9792 8.65C50.4592 8.33 50.0292 8.05 49.6892 7.81C49.3592 7.56 49.0742 7.265 48.8342 6.925C48.5942 6.575 48.4742 6.185 48.4742 5.755C48.4742 5.485 48.5242 5.215 48.6242 4.945C48.8442 4.295 49.2542 3.795 49.8542 3.445C50.4542 3.085 51.0992 2.905 51.7892 2.905C52.4992 2.905 53.0942 3.085 53.5742 3.445C54.0642 3.805 54.3092 4.315 54.3092 4.975C54.3092 5.185 54.2792 5.41 54.2192 5.65C54.1792 5.83 54.0292 5.985 53.7692 6.115C53.5092 6.245 53.2642 6.31 53.0342 6.31C52.8942 6.31 52.7842 6.28 52.7042 6.22C52.6342 6.16 52.6192 6.075 52.6592 5.965C52.7192 5.755 52.7492 5.545 52.7492 5.335C52.7492 5.005 52.6642 4.725 52.4942 4.495C52.3242 4.265 52.0742 4.105 51.7442 4.015C51.5642 3.975 51.4292 3.955 51.3392 3.955C50.9792 3.955 50.6742 4.085 50.4242 4.345C50.1842 4.595 50.0642 4.93 50.0642 5.35ZM58.0952 10.6C57.5052 11.22 57.1502 11.595 57.0302 11.725C57.7002 11.675 58.5152 11.65 59.4752 11.65C60.5252 11.65 61.5052 11.685 62.4152 11.755C62.5052 11.655 62.6302 11.575 62.7902 11.515C62.9602 11.445 63.1252 11.41 63.2852 11.41C63.5352 11.41 63.7102 11.49 63.8102 11.65L64.1402 12.13C64.1802 12.21 64.2002 12.265 64.2002 12.295C64.2002 12.415 64.1352 12.53 64.0052 12.64C63.8852 12.74 63.7402 12.82 63.5702 12.88C63.4102 12.94 63.2852 12.965 63.1952 12.955C61.7152 12.825 60.3102 12.76 58.9802 12.76C57.7702 12.76 56.6752 12.815 55.6952 12.925C55.5152 12.945 55.3402 12.92 55.1702 12.85C55.0002 12.78 54.9152 12.675 54.9152 12.535C54.9152 12.445 54.9502 12.35 55.0202 12.25C55.3802 11.75 55.9152 11.155 56.6252 10.465C56.7252 10.355 56.8402 10.235 56.9702 10.105C57.1002 9.975 57.2402 9.83 57.3902 9.67C58.8802 8.08 60.0402 6.74 60.8702 5.65L61.0802 5.365C61.4702 4.865 61.8002 4.395 62.0702 3.955C62.3402 3.505 62.4752 3.095 62.4752 2.725C62.4752 2.565 62.4452 2.42 62.3852 2.29C62.3052 2.13 62.1702 2.015 61.9802 1.945C61.8002 1.865 61.5952 1.825 61.3652 1.825C61.0752 1.825 60.8252 1.865 60.6152 1.945C60.1852 2.105 59.8052 2.38 59.4752 2.77C59.1552 3.16 58.8002 3.675 58.4102 4.315C58.3302 4.425 58.2552 4.54 58.1852 4.66C58.1152 4.78 58.0402 4.895 57.9602 5.005C57.8902 5.095 57.7452 5.175 57.5252 5.245C57.3152 5.315 57.1102 5.35 56.9102 5.35C56.6002 5.35 56.4452 5.275 56.4452 5.125C56.4452 5.075 56.4652 5.015 56.5052 4.945C57.0252 4.105 57.5102 3.395 57.9602 2.815C58.4202 2.235 58.9602 1.75 59.5802 1.36C60.2102 0.959999 60.9152 0.759999 61.6952 0.759999C61.8952 0.759999 62.1002 0.774999 62.3102 0.805C63.3702 0.955 63.9002 1.445 63.9002 2.275C63.9002 2.825 63.7102 3.435 63.3302 4.105C62.9602 4.765 62.5202 5.435 62.0102 6.115C61.1502 7.245 60.0602 8.52 58.7402 9.94L58.0952 10.6ZM73.221 6.355C73.221 5.885 73.051 5.455 72.711 5.065C72.371 4.675 71.941 4.29 71.421 3.91C70.461 3.23 69.366 2.62 68.136 2.08C67.996 2.93 67.796 4.205 67.536 5.905C67.466 6.355 67.346 7.105 67.176 8.155C67.016 9.205 66.861 10.14 66.711 10.96C67.611 10.6 68.391 10.27 69.051 9.97C69.711 9.66 70.341 9.325 70.941 8.965C71.601 8.585 72.146 8.19 72.576 7.78C73.006 7.37 73.221 6.895 73.221 6.355ZM73.221 3.46C74.261 4.28 74.781 5.135 74.781 6.025C74.781 6.155 74.766 6.295 74.736 6.445C74.616 7.055 74.311 7.6 73.821 8.08C73.331 8.56 72.716 9.035 71.976 9.505C70.026 10.735 67.631 11.8 64.791 12.7C64.661 12.74 64.531 12.76 64.401 12.76C64.251 12.76 64.136 12.73 64.056 12.67C63.966 12.6 63.921 12.515 63.921 12.415C63.921 12.315 63.971 12.215 64.071 12.115C64.161 12.005 64.296 11.915 64.476 11.845L65.121 11.59C65.051 11.52 65.031 11.44 65.061 11.35L65.781 6.985C66.061 5.165 66.361 3.35 66.681 1.54L66.696 1.465C66.476 1.365 66.136 1.225 65.676 1.045C65.536 0.984999 65.466 0.905 65.466 0.805C65.466 0.654999 65.601 0.499999 65.871 0.339999C66.151 0.169999 66.411 0.0849991 66.651 0.0849991C66.751 0.0849991 66.821 0.0949993 66.861 0.115C68.331 0.715 69.551 1.255 70.521 1.735C71.501 2.215 72.401 2.79 73.221 3.46Z" fill="white"/>
</g>
<defs>
<filter id="filter0_d_156_157" x="0.413086" y="0.0849609" width="78.3682" height="22.2188" filterUnits="userSpaceOnUse" color-interpolation-filters="sRGB">
<feFlood flood-opacity="0" result="BackgroundImageFix"/>
<feColorMatrix in="SourceAlpha" type="matrix" values="0 0 0 0 0 0 0 0 0 0 0 0 0 0 0 0 0 0 127 0" result="hardAlpha"/>
<feOffset dy="4"/>
<feGaussianBlur stdDeviation="2"/>
<feComposite in2="hardAlpha" operator="out"/>
<feColorMatrix type="matrix" values="0 0 0 0 0 0 0 0 0 0 0 0 0 0 0 0 0 0 0.25 0"/>
<feBlend mode="normal" in2="BackgroundImageFix" result="effect1_dropShadow_156_157"/>
<feBlend mode="normal" in="SourceGraphic" in2="effect1_dropShadow_156_157" result="shape"/>
</filter>
</defs>
</svg>
